<?xml version="1.0" encoding="utf-8"?>
<!-- Generator: Adobe Illustrator 25.0.1, SVG Export Plug-In . SVG Version: 6.00 Build 0)  -->
<svg version="1.1" id="Layer_1" xmlns="http://www.w3.org/2000/svg" xmlns:xlink="http://www.w3.org/1999/xlink" x="0px" y="0px"
	 viewBox="0 0 1000 876.39" style="enable-background:new 0 0 1000 876.39;" xml:space="preserve">
<style type="text/css">
	.st0{fill:#FFFFFF;}
</style>
<g>
	<path class="st0" d="M504.67,420.57l-4.65,6.61l-4.65-6.61l-87.3-124.07L0,876.39h91.5H908.5h91.5L591.97,296.5L504.67,420.57z
		 M500.01,553.51l4.65,6.61l64.34,91.45l6.31,8.97l-10.96,0l-128.68-0.03l-10.96,0l6.31-8.96l64.34-91.43L500.01,553.51z
		 M853.67,794.74l6.31,8.96h-10.96H151.01h-10.96l6.31-8.96l257.05-365.29l4.65-6.61l4.65,6.61l40.54,57.62l2.3,3.27l-2.3,3.27
		L337.52,658.1l-52.86,75.11h91.84l247.01,0.03h91.84l-52.86-75.11L546.75,493.64l-2.3-3.27l2.3-3.27l40.56-57.64l4.65-6.61
		l4.65,6.61L853.67,794.74z"/>
	<path class="st0" d="M337.51,75.11L453.26,239.6L500,306.05l46.76-66.43L662.49,75.14l52.86-75.11h-91.84L376.49,0h-91.84
		L337.51,75.11z M435.66,72.69l128.68,0.03l10.96,0l-6.31,8.96l-64.34,91.43l-4.65,6.61l-4.65-6.61l-64.34-91.45l-6.31-8.97
		L435.66,72.69z"/>
</g>
</svg>
