<?xml version="1.0" encoding="utf-8"?>
<!-- Generator: Adobe Illustrator 25.0.1, SVG Export Plug-In . SVG Version: 6.00 Build 0)  -->
<svg version="1.1" id="Layer_1" xmlns="http://www.w3.org/2000/svg" xmlns:xlink="http://www.w3.org/1999/xlink" x="0px" y="0px"
	 viewBox="0 0 1000 167.19" style="enable-background:new 0 0 1000 167.19;" xml:space="preserve">
<style type="text/css">
	.st0{fill:#3D3935;}
</style>
<g>
	<path class="st0" d="M162.29,138.54v24.45H0V0h159.96v24.45H27.71v43.54h111.3v24.45H27.71v46.1H162.29z"/>
	<path class="st0" d="M345.99,162.99l-50.53-59.14h-68.69v59.14h-27.94V0h110.83c37.95,0,65.89,18.16,65.89,51.92
		c0,28.17-19.56,45.4-47.97,50.53l52.86,60.54H345.99z M307.8,79.86c23.29,0,39.12-7.45,39.12-27.71
		c0-20.26-15.83-27.71-39.12-27.71h-81.26v55.42H307.8z"/>
	<path class="st0" d="M589.06,0v86.15c0,48.2-30.97,81.73-88.71,81.73c-57.51,0-88.48-33.53-88.48-81.73V0h27.94v84.29
		c0,36.55,21.65,58.68,60.54,58.68c39.12,0,60.77-22.12,60.77-58.68V0H589.06z"/>
	<path class="st0" d="M811.18,53.32c0,34.23-26.31,53.32-65.9,53.32h-82.19v56.35h-27.94V0h110.13
		C784.87,0,811.18,19.32,811.18,53.32z M782.54,53.55c0-20.95-15.6-29.11-39.59-29.11h-79.86v58.21h79.86
		C766.94,82.66,782.54,74.28,782.54,53.55z"/>
	<path class="st0" d="M1000,24.45h-74.28v138.54h-27.94V24.45h-73.81V0H1000V24.45z"/>
</g>
</svg>
