<?xml version="1.0" encoding="utf-8"?>
<!-- Generator: Adobe Illustrator 25.1.0, SVG Export Plug-In . SVG Version: 6.00 Build 0)  -->
<svg version="1.1" id="Capa_1" xmlns="http://www.w3.org/2000/svg" xmlns:xlink="http://www.w3.org/1999/xlink" x="0px" y="0px"
	 viewBox="0 0 512 512" style="enable-background:new 0 0 512 512;" xml:space="preserve">
<style type="text/css">
	.st0{fill:#FFFFFF;stroke:#000000;stroke-miterlimit:10;}
	.st1{fill:#FFFFFF;}
</style>
<path class="st0" d="M348.8,494.6c-7.2,2.8-14.6,5.3-22.1,7.4C334.3,499.9,341.6,497.4,348.8,494.6z"/>
<path class="st0" d="M326.7,502.1L326.7,502.1C326.7,502.1,326.7,502.1,326.7,502.1C326.7,502.1,326.7,502.1,326.7,502.1z"/>
<path class="st1" d="M512,256c0,1.1,0,2.2,0,3.3c0,0.7,0,1.5,0,2.2c0,0.8,0,1.6-0.1,2.4c0,1.2-0.1,2.4-0.1,3.6
	c0,0.7-0.1,1.4-0.1,2.2c0,1-0.1,1.9-0.2,2.8c-0.1,1.1-0.1,2.2-0.2,3.3c0,0.7-0.1,1.3-0.2,2c-0.1,0.7-0.1,1.3-0.2,2
	c-0.1,0.7-0.1,1.4-0.2,2.1c-0.1,1.2-0.2,2.4-0.4,3.6c-0.2,1.9-0.5,3.7-0.7,5.6c-0.1,0.9-0.2,1.8-0.4,2.6c-0.1,0.7-0.2,1.4-0.3,2.1
	c-0.1,0.8-0.2,1.6-0.4,2.4c-0.2,1.1-0.3,2.1-0.5,3.2c-0.2,1.1-0.4,2.3-0.6,3.4c-0.2,0.9-0.4,1.9-0.5,2.8c-0.2,1.1-0.4,2.1-0.7,3.2
	c-0.2,1-0.5,2-0.7,3.1c-0.2,1-0.5,2.1-0.7,3.1c0,0,0,0,0,0c-0.2,1-0.5,2-0.8,3c-0.3,1-0.5,2-0.8,3.1c-0.5,2-1.1,4.1-1.7,6.1
	c-0.5,1.8-1.1,3.6-1.7,5.4c-0.1,0.2-0.1,0.5-0.2,0.7c-0.3,1-0.6,1.9-1,2.8c-0.7,2-1.4,4-2.1,5.9c0,0.1-0.1,0.2-0.1,0.3
	c-0.3,0.9-0.6,1.8-1,2.6c-0.4,1-0.8,2-1.1,2.9c-0.4,1-0.8,1.9-1.2,2.9c-0.8,1.9-1.6,3.8-2.4,5.8c0,0.1-0.1,0.1-0.1,0.2
	c-2,4.7-4.2,9.3-6.6,13.8c0,0,0,0.1,0,0.1c-0.5,0.9-0.9,1.8-1.4,2.7c-0.5,0.9-1,1.8-1.5,2.7c-0.5,0.9-1,1.8-1.5,2.7
	c-1.5,2.7-3.1,5.4-4.7,8c-0.5,0.9-1.1,1.8-1.6,2.6c-0.5,0.9-1.1,1.7-1.7,2.6s-1.1,1.7-1.7,2.6c-0.6,0.8-1.1,1.7-1.7,2.6
	c-0.6,0.8-1.2,1.7-1.7,2.5c-0.6,0.9-1.2,1.7-1.8,2.5c-0.6,0.8-1.2,1.7-1.8,2.5c-0.6,0.8-1.2,1.7-1.8,2.5c0,0.1-0.1,0.1-0.1,0.2
	c-1.2,1.6-2.4,3.1-3.6,4.7c-1.3,1.6-2.6,3.2-3.9,4.8c-1.3,1.6-2.6,3.1-4,4.7c-0.7,0.8-1.3,1.5-2,2.3c-2.6,2.9-5.2,5.8-8,8.6
	c-0.6,0.6-1.2,1.2-1.8,1.8c-0.6,0.6-1.2,1.2-1.8,1.8c-0.6,0.6-1.2,1.2-1.8,1.8c-1.8,1.8-3.7,3.5-5.5,5.2c-0.6,0.6-1.3,1.1-1.9,1.7
	s-1.3,1.1-1.9,1.7c-2.5,2.2-5.1,4.4-7.8,6.6c-0.7,0.5-1.3,1.1-2,1.6c-0.7,0.5-1.3,1-2,1.6c-2,1.6-4,3.1-6.1,4.6
	c-0.7,0.5-1.4,1-2.1,1.5c-1.4,1-2.8,2-4.2,2.9c-0.7,0.5-1.4,1-2.1,1.4c-1.4,0.9-2.8,1.9-4.3,2.8c-0.7,0.5-1.4,0.9-2.1,1.4
	c-0.7,0.5-1.4,0.9-2.2,1.4c-1.4,0.9-2.9,1.8-4.4,2.6c-0.8,0.5-1.5,0.9-2.3,1.4c-1.4,0.8-2.9,1.6-4.3,2.4c-0.8,0.4-1.5,0.8-2.2,1.2
	c-1.5,0.8-3,1.6-4.5,2.4c-1.5,0.8-3,1.5-4.5,2.2c-0.8,0.4-1.6,0.8-2.4,1.2c-1.5,0.7-3.1,1.5-4.7,2.1c-1.6,0.7-3.1,1.4-4.7,2.1
	c-1.6,0.7-3.2,1.3-4.8,2c-0.8,0.3-1.6,0.6-2.4,1c-7.2,2.8-14.6,5.3-22.1,7.5V312.6h55.2l8.3-64.1h-63.5v-40.8
	c0-18.5,5.2-31.1,31.7-31.1H392v-57.2c-5.8-0.8-25.9-2.5-49.3-2.5c-48.8,0-82.2,29.8-82.2,84.5v47.2h-55v64.1h55v199.2
	c-0.7,0-1.4,0.1-2.1,0.1c-0.8,0-1.6,0-2.4,0c-13.3,0-26.3-1-39-3c-2.1-0.3-4.2-0.7-6.3-1c-3.2-0.6-6.3-1.2-9.4-1.9
	c-2.1-0.5-4.1-0.9-6.2-1.4c-7.2-1.8-14.3-3.8-21.2-6.2c-3-1-5.9-2.1-8.8-3.2c-3.9-1.5-7.8-3-11.6-4.7c-3.8-1.7-7.6-3.4-11.3-5.3h0
	c-2.8-1.4-5.5-2.8-8.2-4.3c-1.8-1-3.6-2-5.4-3c-1.8-1-3.6-2.1-5.3-3.1c-7-4.3-13.9-8.9-20.4-13.8c-1.6-1.2-3.3-2.5-4.9-3.7
	c-1.6-1.3-3.2-2.6-4.8-3.9c-0.8-0.6-1.6-1.3-2.4-2c-1.6-1.3-3.1-2.7-4.6-4c-7.7-6.8-14.9-14-21.7-21.7c-1.4-1.5-2.7-3.1-4-4.6
	c-0.7-0.8-1.3-1.6-2-2.4c-1.3-1.6-2.6-3.2-3.9-4.8c-1.3-1.6-2.5-3.2-3.7-4.9c-4.9-6.6-9.5-13.4-13.8-20.4c-1.1-1.8-2.1-3.5-3.1-5.3
	c-1-1.8-2-3.6-3-5.4c-1.5-2.7-2.9-5.5-4.3-8.2v0c-1.8-3.7-3.6-7.5-5.3-11.3c-1.7-3.8-3.2-7.7-4.7-11.6c-1.1-2.9-2.2-5.9-3.2-8.8
	c-2.4-6.9-4.4-14-6.2-21.2c-0.5-2.1-1-4.1-1.4-6.2c-0.7-3.1-1.3-6.2-1.9-9.4c-0.4-2.1-0.7-4.2-1-6.3c-1.9-12.7-3-25.7-3-39
	s1-26.3,3-39c0.3-2.1,0.7-4.2,1-6.3c0.6-3.2,1.2-6.3,1.9-9.4c0.5-2.1,0.9-4.1,1.4-6.2c1.8-7.2,3.8-14.3,6.2-21.2
	c1-3,2.1-5.9,3.2-8.8c1.5-3.9,3-7.8,4.7-11.6c1.7-3.8,3.4-7.6,5.3-11.3v0c1.4-2.8,2.8-5.5,4.3-8.2c1-1.8,2-3.6,3-5.4
	c1-1.8,2.1-3.6,3.1-5.3c4.3-7,8.9-13.9,13.8-20.4c1.2-1.6,2.5-3.3,3.7-4.9c1.3-1.6,2.6-3.2,3.9-4.8c0.6-0.8,1.3-1.6,2-2.4
	c1.3-1.6,2.7-3.1,4-4.6c6.8-7.7,14-14.9,21.7-21.7c1.5-1.4,3.1-2.7,4.6-4c0.8-0.7,1.6-1.3,2.4-2c1.6-1.3,3.2-2.6,4.8-3.9
	c1.6-1.3,3.2-2.5,4.9-3.7c6.6-4.9,13.4-9.5,20.4-13.8c1.8-1.1,3.5-2.1,5.3-3.1c1.8-1,3.6-2,5.4-3c2.7-1.5,5.5-2.9,8.2-4.3h0
	c3.7-1.8,7.5-3.6,11.3-5.3c3.8-1.7,7.7-3.2,11.6-4.7c2.9-1.1,5.9-2.2,8.8-3.2c6.9-2.4,14-4.4,21.2-6.2c2.1-0.5,4.1-1,6.2-1.4
	c3.1-0.7,6.2-1.3,9.4-1.9c2.1-0.4,4.2-0.7,6.3-1c12.7-1.9,25.7-3,39-3s26.3,1,39,3c2.1,0.3,4.2,0.7,6.3,1c3.2,0.6,6.3,1.2,9.4,1.9
	c2.1,0.5,4.1,0.9,6.2,1.4c7.2,1.8,14.3,3.8,21.2,6.2c3,1,5.9,2.1,8.8,3.2c3.9,1.5,7.8,3,11.6,4.7c3.8,1.7,7.6,3.4,11.3,5.3h0
	c2.8,1.4,5.5,2.8,8.2,4.3c1.8,1,3.6,2,5.4,3c1.8,1,3.5,2.1,5.3,3.1c7,4.3,13.9,8.9,20.4,13.8c1.7,1.2,3.3,2.5,4.9,3.7
	c1.6,1.3,3.2,2.6,4.8,3.9c0.8,0.6,1.6,1.3,2.4,2c1.6,1.3,3.1,2.7,4.6,4c7.7,6.8,14.9,14,21.7,21.7c1.4,1.5,2.7,3.1,4,4.6
	c0.7,0.8,1.3,1.6,2,2.4c1.3,1.6,2.6,3.2,3.9,4.8c1.3,1.6,2.5,3.2,3.7,4.9c4.9,6.6,9.5,13.4,13.8,20.4c1.1,1.8,2.1,3.5,3.1,5.3
	c1,1.8,2,3.6,3,5.4c1.5,2.7,2.9,5.5,4.3,8.2v0c1.8,3.7,3.6,7.5,5.3,11.3c1.7,3.8,3.2,7.7,4.7,11.6c1.1,2.9,2.2,5.9,3.2,8.8
	c2.4,6.9,4.4,14,6.2,21.2c0.5,2.1,1,4.1,1.4,6.2c0.7,3.1,1.3,6.2,1.9,9.4c0.4,2.1,0.7,4.2,1,6.3C511,229.7,512,242.7,512,256z"/>
</svg>
